<?xml version="1.0" encoding="utf-8"?>
<!-- Generator: Adobe Illustrator 22.0.0, SVG Export Plug-In . SVG Version: 6.00 Build 0)  -->
<svg version="1.1" id="Layer_1" xmlns="http://www.w3.org/2000/svg" xmlns:xlink="http://www.w3.org/1999/xlink" x="0px" y="0px"
	 viewBox="0 0 512 512" style="enable-background:new 0 0 512 512;" xml:space="preserve">
<g>
	<path d="M0,0h358c0,17,0,34,0,51C255.7,51,153.3,51,51,51c0,136.6,0,273.3,0,410c136.6,0,273.3,0,410,0c0.1-102.3,0-204.6,0-307
		c17-0.1,34,0,51,0v358H0V0z"/>
	<path d="M409.4,0H512v102.6c-10.9-11.5-22.5-22.3-33.6-33.6C427.3,120.2,376.2,171.4,325,222.4c11,11.2,22.2,22.3,33.3,33.4
		c-34.1,0.5-68.2,0.2-102.3,0.2c0-34.1-0.2-68.2,0.1-102.3c11.2,11.1,22.3,22.2,33.5,33.3C340.7,135.8,391.8,84.6,443,33.6
		C431.8,22.5,420.9,10.9,409.4,0z"/>
</g>
</svg>
