<svg version="1.1" id="Layer_1" xmlns="http://www.w3.org/2000/svg" xmlns:xlink="http://www.w3.org/1999/xlink" style="" xml:space="preserve" x="0px" y="0px"
	 viewBox="0 0 115 175">
	 
<g class="currentLayer" style=""><title>Layer 1</title><path class="st0" d="M115.39923095703125,83.70001220703125 v-16.799999237060547 L-0.0007781982421875,0 v59.099998474121094 l85.69999694824219,49.5 l-70.9000015258789,40.900001525878906 v-24.299999237060547 l36.400001525878906,-21 l-15.100000381469727,-8.699999809265137 l-36.099998474121094,20.700000762939453 v59.099998474121094 l115.4000015258789,-66.5999984741211 l-100.5999984741211,-58.20000076293945 v-24.100000381469727 L115.39923095703125,83.70001220703125 z" id="svg_1"/><path class="st0" d="M115.39923095703125,83.70001220703125 v-16.799999237060547 L-0.0007781982421875,0 v59.099998474121094 l85.69999694824219,49.5 l-70.9000015258789,40.900001525878906 v-24.299999237060547 l36.400001525878906,-21 l-15.100000381469727,-8.699999809265137 l-36.099998474121094,20.700000762939453 v59.099998474121094 l115.4000015258789,-66.5999984741211 l-100.5999984741211,-58.20000076293945 v-24.100000381469727 L115.39923095703125,83.70001220703125 z" id="svg_2"/><path class="st0" d="M115.39923095703125,83.70001220703125 v-16.799999237060547 L-0.0007781982421875,0 v59.099998474121094 l85.69999694824219,49.5 l-70.9000015258789,40.900001525878906 v-24.299999237060547 l36.400001525878906,-21 l-15.100000381469727,-8.699999809265137 l-36.099998474121094,20.700000762939453 v59.099998474121094 l115.4000015258789,-66.5999984741211 l-100.5999984741211,-58.20000076293945 v-24.100000381469727 L115.39923095703125,83.70001220703125 z" id="svg_3"/></g></svg>