<?xml version="1.0" encoding="utf-8"?>
<!-- Generator: Adobe Illustrator 22.0.0, SVG Export Plug-In . SVG Version: 6.00 Build 0)  -->
<svg version="1.1" id="Layer_1" xmlns="http://www.w3.org/2000/svg" xmlns:xlink="http://www.w3.org/1999/xlink" x="0px" y="0px"
	 viewBox="0 0 200 200" style="enable-background:new 0 0 200 200;" xml:space="preserve">
<style type="text/css">
	.st0{fill-rule:evenodd;clip-rule:evenodd;fill:currentColor;}
</style>
<path class="st0" d="M22.8,44h152.4c2.1,0,3.8,1.8,3.8,4s-1.7,4-3.8,4H22.8c-2.1,0-3.8-1.8-3.8-4S20.7,44,22.8,44z"/>
<path class="st0" d="M22.8,44h152.4c2.1,0,3.8,1.8,3.8,4s-1.7,4-3.8,4H22.8c-2.1,0-3.8-1.8-3.8-4S20.7,44,22.8,44z"/>
<path class="st0" d="M22.8,44h152.4c2.1,0,3.8,1.8,3.8,4s-1.7,4-3.8,4H22.8c-2.1,0-3.8-1.8-3.8-4S20.7,44,22.8,44z"/>
<path class="st0" d="M40.9,63h118.1c1.6,0,2.9,1.8,2.9,4c0,2.2-1.3,4-2.9,4H40.9c-1.6,0-2.9-1.8-2.9-4C38,64.8,39.3,63,40.9,63z"/>
<path class="st0" d="M40.9,63h118.1c1.6,0,2.9,1.8,2.9,4c0,2.2-1.3,4-2.9,4H40.9c-1.6,0-2.9-1.8-2.9-4C38,64.8,39.3,63,40.9,63z"/>
<path class="st0" d="M54.2,63h91.6c1.3,0,2.3,1.8,2.3,4c0,2.2-1,4-2.3,4H54.2C53,71,52,69.2,52,67C52,64.8,53,63,54.2,63z"/>
<path class="st0" d="M47.9,50.8l-26,101.9c-0.4,1.4-2.4,2.2-4.5,1.7c-2.2-0.4-3.6-1.9-3.2-3.3l26-101.9c0.4-1.4,2.4-2.2,4.5-1.7
	C46.8,48,48.2,49.5,47.9,50.8z"/>
<path class="st0" d="M47.9,50.8l-26,101.9c-0.4,1.4-2.4,2.2-4.5,1.7c-2.2-0.4-3.6-1.9-3.2-3.3l26-101.9c0.4-1.4,2.4-2.2,4.5-1.7
	C46.8,48,48.2,49.5,47.9,50.8z"/>
<path class="st0" d="M47.9,50.8l-26,101.9c-0.4,1.4-2.4,2.2-4.5,1.7c-2.2-0.4-3.6-1.9-3.2-3.3l26-101.9c0.4-1.4,2.4-2.2,4.5-1.7
	C46.8,48,48.2,49.5,47.9,50.8z"/>
<path class="st0" d="M150.1,51.8l26,101.9c0.4,1.4,2.4,2.2,4.5,1.7c2.2-0.4,3.6-1.9,3.2-3.3l-26-101.9c-0.4-1.4-2.4-2.2-4.5-1.7
	C151.2,49,149.8,50.5,150.1,51.8z"/>
<path class="st0" d="M150.1,51.8l26,101.9c0.4,1.4,2.4,2.2,4.5,1.7c2.2-0.4,3.6-1.9,3.2-3.3l-26-101.9c-0.4-1.4-2.4-2.2-4.5-1.7
	C151.2,49,149.8,50.5,150.1,51.8z"/>
<path class="st0" d="M150.1,51.8l26,101.9c0.4,1.4,2.4,2.2,4.5,1.7c2.2-0.4,3.6-1.9,3.2-3.3l-26-101.9c-0.4-1.4-2.4-2.2-4.5-1.7
	C151.2,49,149.8,50.5,150.1,51.8z"/>
</svg>
