<?xml version="1.0" encoding="utf-8"?>
<!-- Generator: Adobe Illustrator 22.0.0, SVG Export Plug-In . SVG Version: 6.00 Build 0)  -->
<svg version="1.1" id="Layer_1" xmlns="http://www.w3.org/2000/svg" xmlns:xlink="http://www.w3.org/1999/xlink" x="0px" y="0px"
	 viewBox="0 0 200 200" style="enable-background:new 0 0 200 200;" xml:space="preserve">
<style type="text/css">
	.st0{fill-rule:evenodd;clip-rule:evenodd;fill:currentColor;}
</style>
<path class="st0" d="M8,47h184c2.8,0,5,2.2,5,5v6c0,2.8-2.2,5-5,5H8c-2.8,0-5-2.2-5-5v-6C3,49.2,5.2,47,8,47z"/>
<path class="st0" d="M36.5,76h126.9c2.5,0,4.5,2,4.5,4.5c0,2.5-2,4.5-4.5,4.5H36.5C34,85,32,83,32,80.5C32,78,34,76,36.5,76z"/>
<path class="st0" d="M21,68c2.8,0,5,2.2,5,5v77c0,2.8-2.2,5-5,5s-5-2.2-5-5V73C16,70.2,18.2,68,21,68z"/>
<path class="st0" d="M180,68c2.8,0,5,2.2,5,5v77c0,2.8-2.2,5-5,5s-5-2.2-5-5V73C175,70.2,177.2,68,180,68z"/>
</svg>
