<svg height="496pt" viewBox="-96 0 496 496.00002" width="496pt" xmlns="http://www.w3.org/2000/svg"><path d="m281.109375 311.921875c3.945313-.558594 6.878906-3.9375 6.878906-7.921875v-296c0-4.417969-3.582031-8-8-8h-32c-4.417969 0-8 3.582031-8 8v16h-16c-4.417969 0-8 3.582031-8 8v160c0 4.417969 3.582031 8 8 8h16v48h-224c-4.417969 0-8 3.582031-8 8v48c0 4.417969 3.582031 8 8 8h6.878907l-22.8007818 174.960938c-.2968752 2.28125.3984378 4.582031 1.9179688 6.3125 1.515625 1.730468 3.703125 2.722656 6.003906 2.726562h16c3.777344.007812 7.046875-2.625 7.839844-6.320312l38.640625-177.679688h163.039062l38.640626 177.679688c.792968 3.695312 4.0625 6.328124 7.839843 6.320312h16c2.300781-.003906 4.488281-.996094 6.003907-2.726562 1.515624-1.730469 2.214843-4.03125 1.914062-6.3125zm-25.121094-295.921875h16v8h-16zm-24 168v-144h40v144zm24 16h16v48h-16zm-232 64h248v32h-248zm-6.480469 216h-.398437l21.917969-168h15.039062zm268.960938 0-36.5625-168h15.042969l21.917969 168zm0 0"/><path d="m39.988281 288h48c4.417969 0 8-3.582031 8-8s-3.582031-8-8-8h-48c-4.417969 0-8 3.582031-8 8s3.582031 8 8 8zm0 0"/><path d="m107.5 286.640625c.449219.300781.9375.542969 1.449219.71875.453125.230469.9375.394531 1.4375.480469.53125.09375 1.066406.148437 1.601562.160156 2.128907.023438 4.175781-.8125 5.679688-2.320312 1.503906-1.503907 2.339843-3.550782 2.320312-5.679688-.011719-1.046875-.230469-2.078125-.640625-3.039062-.386718-.980469-.957031-1.875-1.679687-2.640626-3.207031-2.960937-8.152344-2.960937-11.359375 0-.707032.777344-1.273438 1.671876-1.679688 2.640626-.410156.960937-.628906 1.992187-.640625 3.039062.027344 2.117188.855469 4.148438 2.320313 5.679688zm0 0"/></svg>