<?xml version="1.0" encoding="utf-8"?>
<!-- Generator: Adobe Illustrator 22.0.0, SVG Export Plug-In . SVG Version: 6.00 Build 0)  -->
<svg version="1.1" id="Layer_1" xmlns="http://www.w3.org/2000/svg" xmlns:xlink="http://www.w3.org/1999/xlink" x="0px" y="0px"
	 viewBox="0 0 200 200" style="enable-background:new 0 0 200 200;" xml:space="preserve">
<style type="text/css">
	.st0{fill-rule:evenodd;clip-rule:evenodd;fill:currentColor;}
</style>
<path class="st0" d="M66,34h68c2.8,0,5,2.2,5,5v2c0,2.8-2.2,5-5,5H66c-2.8,0-5-2.2-5-5v-2C61,36.2,63.2,34,66,34z"/>
<path class="st0" d="M61.1,134h77.8c1.2,0,2.1,0.9,2.1,2v1c0,1.1-0.9,2-2.1,2H61.1c-1.2,0-2.1-0.9-2.1-2v-1
	C59,134.9,59.9,134,61.1,134z"/>
<path class="st0" d="M77,49c1.2,0.2,2,1.2,1.8,2.3L55.5,175.4c-0.2,1.1-1.3,1.8-2.5,1.6c-1.2-0.2-2-1.2-1.8-2.3L74.5,50.6
	C74.7,49.5,75.8,48.8,77,49z"/>
<path class="st0" d="M124,49c-1.2,0.2-2,1.2-1.8,2.3l23.2,124.2c0.2,1.1,1.3,1.8,2.5,1.6c1.2-0.2,2-1.2,1.8-2.3L126.5,50.6
	C126.3,49.5,125.2,48.8,124,49z"/>
</svg>
