<?xml version="1.0" encoding="utf-8"?>
<!-- Generator: Adobe Illustrator 22.0.0, SVG Export Plug-In . SVG Version: 6.00 Build 0)  -->
<svg version="1.1" id="Layer_1" xmlns="http://www.w3.org/2000/svg" xmlns:xlink="http://www.w3.org/1999/xlink" x="0px" y="0px"
	 viewBox="0 0 200 200" style="enable-background:new 0 0 200 200;" xml:space="preserve">
<style type="text/css">
	.st0{fill-rule:evenodd;clip-rule:evenodd;fill:currentColor;}
</style>
<path class="st0" d="M39.5,75h121c1.9,0,3.5,2.2,3.5,5c0,2.8-1.6,5-3.5,5h-121c-1.9,0-3.5-2.2-3.5-5C36,77.2,37.6,75,39.5,75z"/>
<path class="st0" d="M39.5,127h121c1.9,0,3.5,0.9,3.5,2s-1.6,2-3.5,2h-121c-1.9,0-3.5-0.9-3.5-2S37.6,127,39.5,127z"/>
<path class="st0" d="M50,77.8v62.4c0,1-1.1,1.8-2.5,1.8s-2.5-0.8-2.5-1.8V77.8c0-1,1.1-1.8,2.5-1.8S50,76.8,50,77.8z"/>
<path class="st0" d="M156,77.8v62.4c0,1-1.1,1.8-2.5,1.8c-1.4,0-2.5-0.8-2.5-1.8V77.8c0-1,1.1-1.8,2.5-1.8
	C154.9,76,156,76.8,156,77.8z"/>
</svg>
