<?xml version="1.0" encoding="utf-8"?>
<!-- Generator: Adobe Illustrator 22.0.0, SVG Export Plug-In . SVG Version: 6.00 Build 0)  -->
<svg version="1.1" id="Layer_1" xmlns="http://www.w3.org/2000/svg" xmlns:xlink="http://www.w3.org/1999/xlink" x="0px" y="0px"
	 viewBox="0 0 474.7 126.4" style="enable-background:new 0 0 474.7 126.4;" xml:space="preserve">
<path d="M110,126.4h9.2L60.3,0.1L0,126.4h9l13.4-28.9h74.2L110,126.4z M26.1,89.5l34.5-71.6l32.1,71.6H26.1z"/>
<path d="M125.1,126.4h5.4l30.9-107.6l29.9,107.6h5.6L253.1,0h-9.3L195,108.9L164.5,0.4h-6l-31.3,108.7L76.8,0h-8.6L125.1,126.4z"/>
<path d="M283.7,9.3h5.3v107.8h-5.3V9.3z"/>
<path d="M321.6,34.9l-10.2-21.8L301,34.9h2.5l2.1-4.7h11.2l2.1,4.7H321.6z M311.4,18.2l4.4,9.8h-9.2L311.4,18.2z"/>
<path d="M337.2,14.2v20.8h2.3v-6.9h6.4l5.8,6.9h2.9l-6-7.3c1.6-0.5,2.8-1.2,3.6-2.3c0.8-1.1,1.1-2.5,1.1-4.3c0-1.8-0.3-3.1-0.8-4.1
	c-0.5-1-1.4-1.7-2.6-2.2c-1.2-0.5-2.8-0.7-4.8-0.7l0,0L337.2,14.2L337.2,14.2z M351.1,21.2c0,1.7-0.4,2.8-1.3,3.6
	c-0.9,0.7-2.3,1.1-4.2,1.1h-6.1v-9.4h5.6c1.5,0,2.7,0.1,3.7,0.4l0,0c0.8,0.3,1.3,0.8,1.7,1.5C350.9,18.9,351.1,19.9,351.1,21.2
	L351.1,21.2z"/>
<path d="M378.3,35l0.1-18.5h6.5l1.1-2.3h-16.5l-1.1,2.3h7.8L376.1,35H378.3z"/>
<path d="M310.8,73.2l4.6-15.6l4.5,15.6h1.6l7.2-20.8h-2.5l-5.3,15.9l-4.6-15.8h-1.7l-4.7,15.9l-5.3-16h-2.5l7.2,20.8H310.8z"/>
<path d="M354.1,73.6c1.9,0,3.7-0.5,5.3-1.4s2.8-2.3,3.7-3.9c0.9-1.7,1.3-3.5,1.3-5.5c0-2-0.5-3.9-1.3-5.6c-0.9-1.7-2.1-2.9-3.7-3.9
	c-1.6-0.9-3.3-1.4-5.3-1.4c-2,0-3.8,0.5-5.5,1.4c-1.6,0.9-2.8,2.3-3.7,3.9c-0.9,1.7-1.3,3.5-1.3,5.5c0,1.9,0.5,3.7,1.3,5.5
	c0.9,1.7,2.2,3,3.8,3.9S352.1,73.6,354.1,73.6L354.1,73.6z M354.1,54.3c1.5,0,2.9,0.4,4.2,1.1c1.2,0.7,2.1,1.7,2.8,3.1
	c0.7,1.3,1,2.7,1,4.3c0,1.6-0.3,3.1-1,4.3c-0.7,1.3-1.7,2.4-2.9,3.1c-1.2,0.7-2.6,1.1-4.1,1.1c-1.7,0-3.1-0.4-4.4-1.1
	c-1.2-0.7-2.1-1.7-2.8-3.1c-0.7-1.3-1-2.8-1-4.4c0-1.7,0.3-3.1,1-4.3c0.7-1.3,1.7-2.4,2.9-3.1C351.1,54.7,352.5,54.3,354.1,54.3
	L354.1,54.3z"/>
<path d="M390.8,73.6c1.9,0,3.7-0.5,5.3-1.4s2.8-2.3,3.7-3.9c0.9-1.7,1.3-3.5,1.3-5.5c0-2-0.5-3.9-1.3-5.6c-0.9-1.7-2.1-2.9-3.7-3.9
	c-1.6-0.9-3.3-1.4-5.3-1.4c-2,0-3.8,0.5-5.5,1.4c-1.6,0.9-2.8,2.3-3.7,3.9c-0.9,1.7-1.3,3.5-1.3,5.5c0,1.9,0.5,3.7,1.3,5.5
	c0.9,1.7,2.2,3,3.8,3.9C387.1,73.2,388.8,73.6,390.8,73.6L390.8,73.6z M390.8,54.3c1.5,0,2.9,0.4,4.2,1.1c1.2,0.7,2.1,1.7,2.8,3.1
	c0.7,1.3,1,2.7,1,4.3c0,1.6-0.3,3.1-1,4.3c-0.7,1.3-1.7,2.4-2.9,3.1c-1.2,0.7-2.6,1.1-4.1,1.1c-1.7,0-3.1-0.4-4.4-1.1
	c-1.2-0.7-2.1-1.7-2.8-3.1c-0.7-1.3-1-2.8-1-4.4c0-1.7,0.3-3.1,1-4.3c0.7-1.3,1.7-2.4,2.9-3.1C387.8,54.7,389.2,54.3,390.8,54.3
	L390.8,54.3z"/>
<path d="M435.9,62.9c0-2.2-0.5-4.1-1.5-5.6c-0.9-1.5-2.3-2.7-4-3.5s-3.6-1.3-5.6-1.3h-6.3l0.1,20.8h6.1c2.1,0,4-0.4,5.6-1.3
	c1.7-0.8,3.1-2,4-3.6C435.5,66.7,435.9,64.9,435.9,62.9L435.9,62.9z M420.8,54.7h4c0.7,0,1.5,0.1,2.3,0.3c0.8,0.2,1.6,0.5,2.2,0.8
	c1.4,0.7,2.5,1.6,3.2,2.9c0.7,1.2,1.1,2.6,1.1,4.2s-0.4,3.1-1.1,4.3c-0.8,1.3-1.8,2.2-3.1,2.9c-1.3,0.7-2.8,1-4.5,1H421L420.8,54.7z
	"/>
<path d="M321.5,101.2c0-2.2-0.5-4.1-1.5-5.6c-0.9-1.5-2.3-2.7-4-3.5c-1.7-0.9-3.6-1.3-5.6-1.3h-6.3l0.1,20.8h6.1
	c2.1,0,4-0.4,5.6-1.3c1.7-0.8,3.1-2,4-3.6C320.9,105,321.5,103.2,321.5,101.2L321.5,101.2z M306.4,93h4c0.7,0,1.5,0.1,2.3,0.3
	c0.8,0.2,1.6,0.5,2.2,0.8c1.4,0.7,2.5,1.6,3.2,2.9c0.7,1.3,1.1,2.6,1.1,4.2s-0.4,3.1-1.1,4.3c-0.8,1.3-1.8,2.2-3.1,2.9
	c-1.3,0.7-2.8,1-4.5,1h-3.9L306.4,93z"/>
<path d="M338.8,90.7v20.8h14.6v-2.3h-12.3v-6h12.2L351,101h-9.9v-8h12v-2.3L338.8,90.7L338.8,90.7z"/>
<path d="M369.3,95.9c0,1.5,0.6,2.7,1.7,3.7c1.2,1,3.1,1.9,5.6,2.7l0.9,0.3c1.3,0.3,2.2,0.7,2.7,0.9c0.7,0.3,1.1,0.6,1.5,1.1
	c0.3,0.4,0.5,0.9,0.5,1.6c0,2.4-1.9,3.6-5.6,3.6c-1.2,0-2.2-0.1-3-0.4c-0.8-0.3-1.7-0.8-2.8-1.5c-0.1-0.1-0.2-0.1-0.3-0.1
	c-0.2,0-0.3,0.1-0.4,0.2l-0.7,0.9c-0.1,0.1-0.1,0.3-0.1,0.4c0,0.2,0.1,0.4,0.3,0.5c0.2,0.2,0.5,0.4,1.1,0.7c0.8,0.5,1.7,0.9,2.8,1.1
	c1.1,0.3,2.2,0.4,3.3,0.4c2.5,0,4.4-0.5,5.8-1.5s2.1-2.5,2.1-4.3c0-1.3-0.3-2.2-0.8-2.9c-0.5-0.7-1.1-1.2-1.9-1.5s-2-0.8-3.7-1.3
	l-1-0.3c-1.9-0.6-3.3-1.2-4.2-1.9c-0.9-0.7-1.3-1.5-1.3-2.3c0-1,0.5-1.8,1.4-2.4c0.9-0.6,2.1-0.9,3.7-0.9c1,0,1.9,0.1,2.8,0.3
	c0.9,0.2,1.7,0.5,2.3,0.9l1,0.6c0.1,0.1,0.2,0.1,0.3,0.1c0.1,0,0.2-0.1,0.3-0.1l0.7-1c0.1-0.2,0.2-0.3,0.2-0.5
	c0-0.1-0.1-0.2-0.1-0.3c-0.2-0.2-0.5-0.5-1.1-0.8c-0.7-0.5-1.7-0.9-2.8-1.1c-1.1-0.3-2.3-0.4-3.6-0.4c-1.5,0-2.7,0.3-3.8,0.7
	c-1.1,0.5-2,1.1-2.6,2C369.6,93.9,369.3,94.9,369.3,95.9L369.3,95.9z"/>
<path d="M401.6,90.8v20.8h2.3V90.8H401.6z"/>
<path d="M421,101.4c0,2,0.5,3.9,1.5,5.7c0.9,1.6,2.1,2.8,3.7,3.7c1.6,0.9,3.3,1.3,5.3,1.3c2.1,0,3.9-0.5,5.3-1.5
	c1.4-0.9,2.5-2.1,3.2-3.7c0.7-1.5,1-3.4,0.9-5.5v-1.5l-8.7-0.1l0.1,2.3l6.4,0.1c0.1,0.6,0,1.3-0.1,2c-0.1,0.7-0.3,1.3-0.6,1.9
	c-0.6,1.2-1.4,2.1-2.5,2.8c-1.1,0.6-2.4,0.9-4,0.9s-3-0.3-4.1-1c-1.3-0.7-2.3-1.7-2.9-3c-0.7-1.3-1.1-2.7-1.2-4.3
	c0-0.8,0.1-1.7,0.3-2.5c0.2-0.9,0.5-1.6,0.8-2.2c0.7-1.3,1.7-2.3,2.9-3.1c1.3-0.7,2.7-1.1,4.3-1.1c1.2,0,2.3,0.1,3.2,0.5
	c0.9,0.3,1.8,0.9,2.7,1.6l0.3,0.3c0.3,0.3,0.5,0.5,0.6,0.5c0.1,0,0.3-0.1,0.5-0.5l0.5-0.6c0.2-0.3,0.3-0.4,0.3-0.5
	c0-0.1-0.1-0.3-0.3-0.5c-0.4-0.4-0.7-0.7-1.1-0.9c-0.8-0.7-1.8-1.2-3-1.6c-1.1-0.3-2.4-0.5-3.7-0.5c-2,0-3.7,0.5-5.3,1.3
	c-1.6,0.9-2.9,2.3-3.9,4C421.4,97.5,421,99.3,421,101.4L421,101.4z"/>
<path d="M459.4,111.6V95.3l14.8,16.4l0.5-20.9h-2.3l-0.3,15.2l-14.9-16.6l-0.1,22.2H459.4z"/>
</svg>
